<svg width="162" height="108" viewBox="0 0 162 108" fill="none" xmlns="http://www.w3.org/2000/svg">
<g clip-path="url(#clip0_2460_26)">
<path d="M30 93.7441H29.956C29.4173 93.6997 28.8804 93.6366 28.346 93.5551C28.2033 93.5346 28.0747 93.4582 27.9883 93.3427C27.9019 93.2273 27.865 93.0823 27.8855 92.9396C27.9061 92.7969 27.9825 92.6683 28.0979 92.5819C28.2133 92.4955 28.3583 92.4586 28.501 92.4791C29.021 92.5551 29.541 92.6141 30.064 92.6571C30.2067 92.6628 30.3413 92.725 30.4381 92.8299C30.535 92.9348 30.5862 93.0739 30.5805 93.2166C30.5748 93.3593 30.5127 93.4939 30.4077 93.5907C30.3028 93.6876 30.1637 93.7388 30.021 93.7331L29.999 93.7431L30 93.7441ZM35.37 93.5391C35.2273 93.5497 35.0863 93.5032 34.9779 93.4098C34.8695 93.3164 34.8026 93.1838 34.792 93.0411C34.7814 92.8984 34.8279 92.7574 34.9213 92.649C35.0147 92.5406 35.1473 92.4737 35.29 92.4631C35.8073 92.3818 36.321 92.2797 36.83 92.1571C36.8988 92.141 36.9702 92.1386 37.0399 92.1502C37.1097 92.1617 37.1764 92.1869 37.2364 92.2244C37.2963 92.2619 37.3483 92.3108 37.3892 92.3684C37.4302 92.426 37.4593 92.4912 37.475 92.5601C37.5075 92.6984 37.484 92.8439 37.4097 92.9649C37.3353 93.086 37.2161 93.1727 37.078 93.2061C36.541 93.3351 36.004 93.4421 35.467 93.5291L35.37 93.5391ZM23.233 92.2271C23.1706 92.2269 23.1086 92.2157 23.05 92.1941C22.535 92.0087 22.0264 91.8059 21.525 91.5861C21.3999 91.5259 21.3028 91.4197 21.254 91.2897C21.2052 91.1597 21.2085 91.0158 21.2631 90.8882C21.3178 90.7605 21.4197 90.6589 21.5475 90.6044C21.6752 90.55 21.8191 90.5471 21.949 90.5961C22.432 90.8061 22.932 91.0001 23.421 91.1831C23.5405 91.2263 23.6409 91.3103 23.7044 91.4204C23.7679 91.5305 23.7903 91.6594 23.7678 91.7845C23.7453 91.9095 23.6792 92.0226 23.5814 92.1036C23.4835 92.1846 23.3601 92.2284 23.233 92.2271ZM41.992 91.3981C41.8697 91.3997 41.7504 91.3596 41.6539 91.2844C41.5575 91.2091 41.4895 91.1032 41.4613 90.9841C41.4331 90.8651 41.4464 90.7399 41.4988 90.6294C41.5513 90.5189 41.6399 90.4295 41.75 90.3761C42.217 90.1501 42.684 89.8971 43.14 89.6341C43.2011 89.5988 43.2685 89.5758 43.3384 89.5666C43.4084 89.5573 43.4795 89.5619 43.5476 89.5801C43.6158 89.5983 43.6797 89.6297 43.7357 89.6726C43.7917 89.7155 43.8387 89.7691 43.874 89.8301C43.9093 89.8912 43.9323 89.9586 43.9416 90.0285C43.9508 90.0985 43.9462 90.1695 43.928 90.2377C43.9098 90.3059 43.8784 90.3698 43.8355 90.4258C43.7926 90.4818 43.7391 90.5288 43.678 90.5641C43.2 90.8391 42.711 91.1021 42.228 91.3441C42.1479 91.3833 42.0592 91.4019 41.97 91.3981H41.992ZM16.998 89.1061C16.8957 89.1077 16.7951 89.0799 16.708 89.0261C16.251 88.7361 15.795 88.4291 15.348 88.1161C15.2901 88.0759 15.2407 88.0247 15.2026 87.9654C15.1644 87.9062 15.1384 87.8399 15.1258 87.7706C15.1133 87.7012 15.1145 87.6301 15.1295 87.5612C15.1445 87.4923 15.1728 87.427 15.213 87.3691C15.2532 87.3112 15.3044 87.2618 15.3637 87.2236C15.423 87.1855 15.4892 87.1594 15.5586 87.1469C15.6279 87.1344 15.6991 87.1356 15.768 87.1506C15.8369 87.1655 15.9021 87.1939 15.96 87.2341C16.396 87.5411 16.836 87.8311 17.282 88.1171C17.3791 88.1797 17.4534 88.2719 17.494 88.3801C17.5346 88.4882 17.5393 88.6065 17.5075 88.7175C17.4756 88.8285 17.4089 88.9264 17.3171 88.9965C17.2254 89.0667 17.1135 89.1055 16.998 89.1071V89.1061ZM47.77 87.5621C47.6921 87.5615 47.6152 87.5439 47.5448 87.5106C47.4743 87.4772 47.4119 87.429 47.362 87.3691C47.2695 87.2604 47.2238 87.1195 47.2351 86.9772C47.2463 86.8349 47.3136 86.7029 47.422 86.6101L47.539 86.4861C47.894 86.1801 48.254 85.8621 48.613 85.5291C48.6649 85.4812 48.7257 85.4439 48.792 85.4195C48.8582 85.3951 48.9287 85.3839 48.9992 85.3867C49.0698 85.3895 49.1391 85.4062 49.2033 85.4357C49.2674 85.4653 49.3251 85.5072 49.373 85.5591C49.421 85.611 49.4582 85.6718 49.4826 85.7381C49.5071 85.8043 49.5182 85.8748 49.5154 85.9453C49.5126 86.0159 49.496 86.0852 49.4664 86.1494C49.4368 86.2135 49.3949 86.2712 49.343 86.3191C48.968 86.6641 48.603 86.9921 48.237 87.3041L48.114 87.4061C48.022 87.4981 47.8998 87.5535 47.77 87.5621ZM11.444 84.8721C11.3108 84.8717 11.1825 84.8218 11.084 84.7321C10.682 84.3621 10.284 83.9851 9.90402 83.6081C9.81433 83.5061 9.76648 83.3739 9.77004 83.2381C9.7736 83.1023 9.82831 82.9729 9.92323 82.8757C10.0182 82.7785 10.1463 82.7207 10.282 82.7139C10.4177 82.7072 10.5509 82.7519 10.655 82.8391C11.031 83.2101 11.418 83.5761 11.81 83.9151C11.8626 83.963 11.9052 84.0208 11.9353 84.0852C11.9654 84.1496 11.9824 84.2194 11.9854 84.2904C11.9884 84.3615 11.9772 84.4324 11.9526 84.4991C11.928 84.5658 11.8904 84.627 11.842 84.6791C11.7933 84.7379 11.7326 84.7856 11.6639 84.819C11.5953 84.8525 11.5203 84.8709 11.444 84.8731V84.8721ZM52.749 82.6621C52.6448 82.6624 52.5427 82.6323 52.4553 82.5755C52.3679 82.5188 52.2988 82.4378 52.2566 82.3425C52.2144 82.2472 52.2009 82.1417 52.2177 82.0388C52.2344 81.9359 52.2808 81.8401 52.351 81.7631C52.706 81.3701 53.066 80.9731 53.425 80.5631C53.4716 80.5102 53.5282 80.467 53.5916 80.4359C53.6549 80.4049 53.7237 80.3866 53.7941 80.3821C53.8645 80.3777 53.935 80.3871 54.0018 80.4099C54.0685 80.4328 54.1301 80.4685 54.183 80.5151C54.2359 80.5617 54.2792 80.6183 54.3102 80.6816C54.3413 80.745 54.3596 80.8138 54.364 80.8842C54.3685 80.9546 54.359 81.0251 54.3362 81.0919C54.3134 81.1586 54.2776 81.2202 54.231 81.2731C53.866 81.6881 53.506 82.0911 53.157 82.4831C53.1034 82.5355 53.0394 82.5761 52.9691 82.6023C52.8988 82.6285 52.8239 82.6397 52.749 82.6351V82.6611V82.6621ZM6.72402 79.7231C6.6425 79.7235 6.56195 79.7054 6.48849 79.67C6.41503 79.6347 6.35058 79.5831 6.30002 79.5191C5.96183 79.0896 5.6321 78.6535 5.31102 78.2111C5.26964 78.1536 5.24002 78.0884 5.22386 78.0194C5.20769 77.9504 5.2053 77.8788 5.21682 77.8089C5.22833 77.7389 5.25354 77.672 5.29098 77.6118C5.32842 77.5516 5.37737 77.4994 5.43502 77.4581C5.5505 77.376 5.69382 77.3429 5.83362 77.3661C5.97342 77.3894 6.09833 77.467 6.18102 77.5821C6.49302 78.0071 6.81002 78.4321 7.14302 78.8521C7.20501 78.9314 7.24357 79.0264 7.25433 79.1265C7.2651 79.2265 7.24764 79.3276 7.20393 79.4182C7.16022 79.5089 7.09201 79.5855 7.00702 79.6394C6.92203 79.6932 6.82365 79.7223 6.72302 79.7231H6.72402ZM57.303 77.3401C57.2014 77.3399 57.1019 77.3111 57.016 77.2568C56.9301 77.2026 56.8613 77.1251 56.8175 77.0335C56.7737 76.9418 56.7567 76.8396 56.7685 76.7387C56.7803 76.6378 56.8203 76.5422 56.884 76.4631C57.222 76.0491 57.561 75.6351 57.899 75.2101C57.9431 75.1551 57.9977 75.1093 58.0595 75.0753C58.1213 75.0414 58.1892 75.0199 58.2593 75.0122C58.3294 75.0045 58.4004 75.0107 58.4681 75.0304C58.5358 75.0501 58.599 75.083 58.654 75.1271C58.709 75.1712 58.7548 75.2258 58.7888 75.2876C58.8227 75.3494 58.8442 75.4173 58.8519 75.4874C58.8596 75.5575 58.8534 75.6285 58.8337 75.6962C58.814 75.7639 58.7811 75.8271 58.737 75.8821L57.717 77.1411C57.667 77.2028 57.604 77.2527 57.5324 77.2871C57.4608 77.3215 57.3825 77.3396 57.303 77.3401ZM2.90002 73.8871C2.79993 73.8844 2.7026 73.8537 2.61902 73.7986C2.53544 73.7434 2.46894 73.666 2.42702 73.5751C2.17002 73.0751 1.92802 72.5751 1.71302 72.0901C1.67048 71.9929 1.65759 71.8853 1.67597 71.7807C1.69435 71.6762 1.74317 71.5794 1.81632 71.5025C1.88948 71.4256 1.9837 71.3721 2.08718 71.3485C2.19066 71.3249 2.2988 71.3325 2.39802 71.3701C2.53102 71.4221 2.63802 71.5241 2.69602 71.6551C2.90602 72.1171 3.13602 72.6011 3.38302 73.0801C3.42554 73.1626 3.44605 73.2546 3.44258 73.3473C3.4391 73.44 3.41175 73.5303 3.36318 73.6093C3.31461 73.6884 3.24645 73.7535 3.16531 73.7985C3.08417 73.8435 2.9928 73.8668 2.90002 73.8661V73.8871ZM61.653 71.8591C61.5526 71.859 61.4542 71.8308 61.369 71.7776C61.2839 71.7244 61.2153 71.6484 61.1711 71.5582C61.127 71.4681 61.109 71.3673 61.1192 71.2674C61.1295 71.1675 61.1675 71.0725 61.229 70.9931L62.217 69.7181C62.2583 69.6577 62.3115 69.6063 62.3734 69.5672C62.4352 69.528 62.5044 69.502 62.5767 69.4906C62.649 69.4791 62.7229 69.4826 62.7938 69.5008C62.8647 69.519 62.9311 69.5515 62.989 69.5962C63.0469 69.641 63.0951 69.6972 63.1305 69.7612C63.1659 69.8253 63.1878 69.8959 63.1949 69.9688C63.202 70.0416 63.1942 70.1152 63.1718 70.1849C63.1495 70.2546 63.1132 70.319 63.065 70.3741L62.077 71.6491C62.0249 71.7101 61.9597 71.7587 61.8864 71.7912C61.813 71.8238 61.7333 71.8395 61.653 71.8371V71.8591ZM0.682023 67.2861C0.551692 67.2874 0.425344 67.2412 0.32654 67.1562C0.227736 67.0712 0.163221 66.9532 0.145023 66.8241C0.0695498 66.2721 0.0211585 65.7168 2.3476e-05 65.1601C-0.00445049 65.0868 0.0061196 65.0134 0.0310832 64.9444C0.0560467 64.8753 0.0948755 64.8121 0.145179 64.7587C0.195483 64.7052 0.256198 64.6626 0.323586 64.6335C0.390975 64.6043 0.463611 64.5893 0.537023 64.5893C0.610436 64.5893 0.683072 64.6043 0.750461 64.6335C0.817849 64.6626 0.878564 64.7052 0.928868 64.7587C0.979172 64.8121 1.018 64.8753 1.04296 64.9444C1.06793 65.0134 1.0785 65.0868 1.07402 65.1601C1.09202 65.6791 1.13702 66.1961 1.20802 66.7101C1.2176 66.7803 1.21324 66.8517 1.19519 66.9202C1.17715 66.9887 1.14578 67.053 1.10287 67.1094C1.05996 67.1658 1.00635 67.2131 0.945124 67.2488C0.883893 67.2844 0.816236 67.3076 0.746023 67.3171L0.682023 67.2851V67.2861ZM65.922 66.3131C65.8209 66.3143 65.7215 66.2869 65.6353 66.2342C65.5491 66.1814 65.4795 66.1053 65.4345 66.0147C65.3896 65.9242 65.3712 65.8227 65.3814 65.7221C65.3915 65.6216 65.4299 65.5259 65.492 65.4461L66.476 64.1661C66.5187 64.1101 66.572 64.063 66.6329 64.0276C66.6937 63.9922 66.761 63.9691 66.8307 63.9597C66.9005 63.9503 66.9715 63.9547 67.0396 63.9727C67.1076 63.9907 67.1715 64.0219 67.2275 64.0646C67.2835 64.1073 67.3306 64.1606 67.366 64.2214C67.4014 64.2823 67.4245 64.3496 67.4339 64.4193C67.4433 64.4891 67.4389 64.5601 67.4209 64.6282C67.4029 64.6962 67.3717 64.7601 67.329 64.8161L66.336 66.0811C66.2871 66.1449 66.2245 66.1968 66.1529 66.2332C66.0812 66.2695 66.0023 66.2893 65.922 66.2911V66.3131ZM154.412 63.3531C154.362 63.3583 154.312 63.3583 154.262 63.3531C154.194 63.3335 154.131 63.3006 154.076 63.2565C154.021 63.2124 153.975 63.1578 153.941 63.096C153.907 63.0341 153.885 62.9662 153.878 62.896C153.87 62.8259 153.876 62.7549 153.896 62.6871C154.03 62.2131 154.176 61.6971 154.32 61.1431C154.338 61.0746 154.368 61.0102 154.411 60.9536C154.453 60.8971 154.506 60.8494 154.567 60.8133C154.628 60.7773 154.695 60.7536 154.765 60.7436C154.835 60.7336 154.907 60.7375 154.975 60.7551C155.044 60.7731 155.108 60.8045 155.165 60.8477C155.221 60.8908 155.269 60.9447 155.304 61.0063C155.34 61.0679 155.363 61.1359 155.372 61.2064C155.381 61.2769 155.376 61.3486 155.357 61.4171C155.212 61.9551 155.067 62.4931 154.927 62.9821C154.892 63.0908 154.823 63.1855 154.73 63.2524C154.638 63.3193 154.526 63.355 154.412 63.3541V63.3531ZM70.165 60.7611C70.0643 60.7616 69.9654 60.7336 69.8798 60.6805C69.7942 60.6273 69.7254 60.5511 69.6811 60.4606C69.6368 60.3701 69.619 60.2689 69.6296 60.1687C69.6402 60.0685 69.6788 59.9734 69.741 59.8941L70.724 58.6141C70.7675 58.558 70.8216 58.5111 70.8832 58.4759C70.9448 58.4407 71.0127 58.418 71.0831 58.4091C71.1535 58.4002 71.225 58.4052 71.2934 58.4239C71.3619 58.4426 71.4259 58.4746 71.482 58.5181C71.5381 58.5616 71.5851 58.6157 71.6202 58.6773C71.6554 58.7389 71.6781 58.8068 71.687 58.8772C71.6959 58.9476 71.6909 59.0191 71.6722 59.0875C71.6535 59.1559 71.6215 59.22 71.578 59.2761L70.589 60.5511C70.5376 60.6098 70.474 60.6565 70.4027 60.6881C70.3314 60.7198 70.254 60.7354 70.176 60.7341L70.166 60.7611H70.165ZM1.24102 60.3791C1.1893 60.3867 1.13675 60.3867 1.08502 60.3791C1.01752 60.3582 0.954793 60.3243 0.90042 60.2791C0.846047 60.234 0.801095 60.1786 0.768129 60.1161C0.735164 60.0536 0.714832 59.9853 0.708293 59.9149C0.701755 59.8446 0.709139 59.7736 0.730024 59.7061C0.888849 59.1777 1.06798 58.6557 1.26702 58.1411C1.29089 58.0723 1.32852 58.0091 1.3776 57.9552C1.42668 57.9014 1.4862 57.8582 1.55253 57.8281C1.61886 57.798 1.69062 57.7817 1.76344 57.7802C1.83627 57.7787 1.90863 57.7921 1.97613 57.8194C2.04363 57.8468 2.10486 57.8876 2.15609 57.9394C2.20732 57.9912 2.24748 58.0528 2.27413 58.1206C2.30078 58.1884 2.31336 58.2609 2.31111 58.3337C2.30886 58.4065 2.29181 58.4781 2.26102 58.5441C2.06802 59.0341 1.89102 59.5291 1.72402 60.0181C1.68534 60.1132 1.62022 60.1951 1.5364 60.2543C1.45257 60.3135 1.35354 60.3475 1.25102 60.3521L1.24102 60.3791ZM156.023 56.5161C155.989 56.5217 155.955 56.5217 155.921 56.5161C155.782 56.4899 155.658 56.4095 155.578 56.2927C155.497 56.1758 155.466 56.0318 155.491 55.8921C155.588 55.3541 155.679 54.8481 155.771 54.3101C155.778 54.2359 155.801 54.164 155.837 54.0988C155.873 54.0337 155.923 53.9767 155.982 53.9313C156.041 53.8859 156.109 53.8532 156.181 53.8352C156.254 53.8171 156.329 53.8141 156.403 53.8263C156.476 53.8385 156.546 53.8657 156.609 53.9061C156.672 53.9466 156.725 53.9995 156.767 54.0615C156.808 54.1235 156.836 54.1934 156.85 54.2668C156.863 54.3402 156.861 54.4155 156.844 54.4881C156.754 55.0261 156.662 55.5641 156.565 56.1021C156.537 56.2232 156.467 56.3307 156.368 56.4062C156.269 56.4817 156.147 56.5206 156.023 56.5161ZM74.46 55.2091C74.3586 55.2099 74.2589 55.182 74.1727 55.1285C74.0865 55.075 74.0171 54.9982 73.9728 54.907C73.9284 54.8157 73.9108 54.7137 73.922 54.6129C73.9332 54.512 73.9727 54.4164 74.036 54.3371L75.04 53.0671C75.0842 53.0121 75.1388 52.9663 75.2007 52.9324C75.2626 52.8985 75.3305 52.8771 75.4007 52.8694C75.4708 52.8617 75.5418 52.868 75.6096 52.8877C75.6773 52.9075 75.7405 52.9404 75.7955 52.9846C75.8505 53.0288 75.8963 53.0834 75.9303 53.1453C75.9642 53.2072 75.9856 53.2751 75.9932 53.3453C76.0009 53.4154 75.9947 53.4864 75.9749 53.5542C75.9551 53.6219 75.9222 53.6851 75.878 53.7401L74.879 55.0041C74.8303 55.0662 74.7684 55.1167 74.6979 55.1521C74.6274 55.1876 74.5499 55.207 74.471 55.2091H74.461H74.46ZM4.43602 54.1651C4.33727 54.1639 4.24075 54.1356 4.157 54.0832C4.07325 54.0309 4.00549 53.9566 3.96111 53.8683C3.91674 53.7801 3.89746 53.6814 3.90538 53.5829C3.9133 53.4845 3.94812 53.3901 4.00602 53.3101C4.32902 52.8741 4.67202 52.4381 5.02602 52.0131C5.11805 51.9041 5.24962 51.8361 5.39177 51.8241C5.53392 51.8121 5.67502 51.8571 5.78402 51.9491C5.89303 52.0411 5.96101 52.1727 5.97301 52.3149C5.98501 52.457 5.94005 52.5981 5.84802 52.7071C5.50827 53.1081 5.18241 53.5207 4.87102 53.9441C4.82112 54.0127 4.75568 54.0685 4.68007 54.1069C4.60446 54.1453 4.52083 54.1652 4.43602 54.1651ZM78.844 49.7481C78.7429 49.747 78.644 49.7175 78.5589 49.6628C78.4737 49.6082 78.4056 49.5307 78.3624 49.4392C78.3192 49.3477 78.3027 49.2459 78.3146 49.1455C78.3266 49.045 78.3666 48.9499 78.43 48.8711L79.456 47.6231C79.4998 47.5678 79.5541 47.5216 79.6157 47.4872C79.6774 47.4528 79.7452 47.4309 79.8153 47.4227C79.8854 47.4146 79.9564 47.4203 80.0243 47.4396C80.0922 47.4589 80.1557 47.4913 80.211 47.5351C80.2664 47.5789 80.3126 47.6332 80.3469 47.6948C80.3813 47.7565 80.4032 47.8243 80.4114 47.8944C80.4196 47.9645 80.4138 48.0355 80.3946 48.1034C80.3753 48.1713 80.3428 48.2348 80.299 48.2901L79.279 49.5331C79.2285 49.6006 79.1628 49.6552 79.0872 49.6925C79.0116 49.7299 78.9283 49.7489 78.844 49.7481ZM156.968 49.5871H156.925C156.783 49.5759 156.652 49.509 156.559 49.401C156.467 49.2931 156.421 49.1529 156.431 49.0111C156.474 48.4731 156.506 47.9351 156.538 47.3971C156.538 47.3242 156.553 47.2521 156.581 47.185C156.61 47.118 156.652 47.0575 156.705 47.0072C156.757 46.9569 156.82 46.9178 156.888 46.8924C156.956 46.8669 157.029 46.8556 157.102 46.8591C157.397 46.8771 157.622 47.1291 157.607 47.4241C157.579 47.9626 157.544 48.5007 157.5 49.0381C157.501 49.1092 157.489 49.1798 157.463 49.246C157.437 49.3121 157.398 49.3725 157.348 49.4235C157.299 49.4746 157.24 49.5153 157.175 49.5434C157.109 49.5715 157.039 49.5863 156.968 49.5871ZM9.28002 49.1301C9.16812 49.1311 9.05871 49.0971 8.96708 49.0328C8.87545 48.9686 8.80618 48.8773 8.76895 48.7718C8.73172 48.6663 8.72838 48.5517 8.75941 48.4442C8.79044 48.3367 8.85429 48.2416 8.94202 48.1721C9.74202 47.5261 10.258 47.1821 10.279 47.1661C10.3981 47.0879 10.5434 47.0601 10.6829 47.089C10.8224 47.1179 10.9448 47.201 11.023 47.3201C11.1013 47.4392 11.129 47.5845 11.1001 47.724C11.0712 47.8635 10.9881 47.9859 10.869 48.0641C10.869 48.0641 10.37 48.3981 9.61902 49.0061C9.52086 49.0878 9.39674 49.1318 9.26902 49.1301H9.28002ZM83.355 44.3901C83.2524 44.3895 83.1522 44.3594 83.0661 44.3036C82.9801 44.2478 82.9118 44.1685 82.8694 44.075C82.827 43.9816 82.8123 43.878 82.8269 43.7765C82.8416 43.675 82.885 43.5797 82.952 43.5021C83.302 43.0941 83.656 42.6851 84.026 42.2821C84.0726 42.2292 84.1292 42.186 84.1926 42.1549C84.2559 42.1239 84.3247 42.1056 84.3951 42.1011C84.4655 42.0967 84.536 42.1061 84.6028 42.1289C84.6695 42.1518 84.7311 42.1875 84.784 42.2341C84.8369 42.2807 84.8802 42.3373 84.9112 42.4006C84.9423 42.464 84.9606 42.5328 84.965 42.6032C84.9695 42.6736 84.96 42.7441 84.9372 42.8109C84.9144 42.8776 84.8786 42.9392 84.832 42.9921C84.477 43.3951 84.122 43.7981 83.758 44.2071C83.7065 44.2659 83.6428 44.3128 83.5712 44.3444C83.4997 44.376 83.4222 44.3916 83.344 44.3901H83.354H83.355ZM157.097 42.5931C156.96 42.5934 156.828 42.5412 156.728 42.4473C156.628 42.3534 156.568 42.2249 156.56 42.0881C156.529 41.5496 156.489 41.0115 156.442 40.4741C156.431 40.4015 156.436 40.3274 156.455 40.2565C156.474 40.1856 156.507 40.1193 156.552 40.0617C156.598 40.004 156.655 39.9563 156.719 39.9213C156.784 39.8863 156.855 39.8649 156.928 39.8583C157.001 39.8517 157.075 39.86 157.144 39.8829C157.214 39.9057 157.279 39.9425 157.334 39.9911C157.389 40.0397 157.433 40.0989 157.465 40.1653C157.496 40.2317 157.513 40.3037 157.516 40.3771C157.564 40.9151 157.607 41.4531 157.634 41.9911C157.634 42.2761 157.413 42.5111 157.129 42.5291L157.097 42.5931ZM88.033 39.1771C87.9283 39.1771 87.8259 39.1465 87.7384 39.089C87.6508 39.0316 87.582 38.9498 87.5404 38.8537C87.4987 38.7577 87.4861 38.6516 87.5039 38.5484C87.5218 38.4452 87.5695 38.3495 87.641 38.2731C88.006 37.8751 88.376 37.4831 88.747 37.0951C88.8448 36.9918 88.9795 36.9316 89.1217 36.9276C89.2638 36.9237 89.4017 36.9764 89.505 37.0741C89.6083 37.1718 89.6686 37.3066 89.6725 37.4488C89.6764 37.5909 89.6238 37.7288 89.526 37.8321L88.452 39.0051C88.3967 39.0654 88.3282 39.1123 88.252 39.1421C88.1757 39.1719 88.0936 39.1839 88.012 39.1771H88.032H88.033ZM156.125 35.6751C156.002 35.6786 155.882 35.64 155.784 35.5655C155.687 35.4911 155.617 35.3854 155.588 35.2661C155.47 34.7505 155.334 34.2392 155.18 33.7331C155.151 33.6004 155.174 33.4618 155.243 33.345C155.312 33.2282 155.423 33.1417 155.553 33.103C155.683 33.0642 155.823 33.0759 155.945 33.1358C156.067 33.1957 156.161 33.2994 156.21 33.4261C156.361 33.9641 156.506 34.4761 156.635 35.0131C156.652 35.082 156.655 35.1535 156.644 35.2235C156.633 35.2935 156.608 35.3607 156.571 35.4212C156.534 35.4816 156.486 35.5342 156.428 35.5759C156.371 35.6176 156.306 35.6476 156.237 35.6641L156.125 35.6741V35.6751ZM92.904 34.1631C92.7974 34.163 92.6933 34.1312 92.6049 34.0718C92.5164 34.0123 92.4477 33.9279 92.4073 33.8293C92.367 33.7306 92.357 33.6222 92.3785 33.5178C92.3999 33.4134 92.452 33.3178 92.528 33.2431L93.693 32.1131C93.7938 32.0119 93.9307 31.9549 94.0735 31.9547C94.2163 31.9544 94.3533 32.0108 94.4545 32.1116C94.5557 32.2124 94.6127 32.3492 94.613 32.4921C94.6133 32.6349 94.5568 32.7719 94.456 32.8731C94.069 33.2381 93.688 33.6141 93.301 33.9911C93.2479 34.0486 93.1829 34.0937 93.1105 34.1234C93.0382 34.1532 92.9602 34.1667 92.882 34.1631H92.904ZM98.044 29.4181C97.9347 29.4184 97.8279 29.3852 97.7379 29.3231C97.6479 29.2611 97.579 29.173 97.5404 29.0707C97.5018 28.9684 97.4953 28.8567 97.5219 28.7506C97.5484 28.6446 97.6068 28.5491 97.689 28.4771L98.924 27.4011C98.9784 27.3556 99.0412 27.3213 99.1088 27.3C99.1765 27.2788 99.2476 27.2711 99.3183 27.2774C99.3889 27.2836 99.4576 27.3037 99.5204 27.3366C99.5833 27.3694 99.639 27.4142 99.6845 27.4686C99.73 27.523 99.7644 27.5858 99.7856 27.6534C99.8068 27.7211 99.8146 27.7922 99.8083 27.8628C99.802 27.9335 99.7819 28.0022 99.7491 28.065C99.7163 28.1278 99.6714 28.1836 99.617 28.2291C99.209 28.5691 98.8 28.9181 98.392 29.2681C98.2925 29.3638 98.1601 29.4175 98.022 29.4181H98.043H98.044ZM153.241 28.8431C152.994 28.3751 152.736 27.9121 152.462 27.4651C152.421 27.4048 152.392 27.3367 152.378 27.2649C152.364 27.1931 152.365 27.1192 152.38 27.0478C152.396 26.9763 152.426 26.9088 152.468 26.8493C152.511 26.7898 152.565 26.7396 152.628 26.7018C152.69 26.664 152.76 26.6395 152.832 26.6295C152.905 26.6196 152.978 26.6246 153.049 26.6442C153.119 26.6638 153.185 26.6976 153.242 26.7435C153.299 26.7894 153.346 26.8464 153.38 26.9111C153.665 27.3741 153.917 27.8581 154.191 28.3421C154.235 28.4244 154.256 28.5165 154.253 28.6095C154.251 28.7025 154.224 28.7932 154.176 28.8729C154.128 28.9525 154.06 29.0183 153.979 29.0639C153.898 29.1095 153.806 29.1334 153.713 29.1331C153.615 29.1322 153.52 29.1048 153.437 29.0537C153.354 29.0026 153.286 28.9298 153.241 28.8431ZM103.5 25.0551C103.386 25.0559 103.275 25.0205 103.182 24.9541C103.089 24.8876 103.02 24.7935 102.985 24.6853C102.949 24.5771 102.948 24.4603 102.983 24.3517C103.018 24.2432 103.086 24.1484 103.178 24.0811C103.618 23.7591 104.058 23.4471 104.498 23.1351C104.575 23.0805 104.666 23.0473 104.76 23.0388C104.854 23.0304 104.949 23.047 105.035 23.087C105.121 23.127 105.194 23.189 105.248 23.2666C105.303 23.3442 105.335 23.4348 105.343 23.5291C105.351 23.6232 105.334 23.7178 105.295 23.8034C105.255 23.889 105.193 23.9627 105.116 24.0171L103.816 24.9471C103.719 25.0204 103.6 25.0585 103.478 25.0551H103.5ZM149.632 23.4951C149.561 23.4948 149.491 23.4804 149.425 23.4528C149.36 23.4251 149.301 23.3848 149.251 23.3341C148.892 22.9751 148.511 22.6171 148.107 22.2581C148.054 22.2116 148.011 22.155 147.98 22.0917C147.948 22.0284 147.93 21.9596 147.926 21.8893C147.921 21.8189 147.93 21.7483 147.953 21.6815C147.976 21.6147 148.011 21.5531 148.058 21.5001C148.105 21.4471 148.161 21.4038 148.224 21.3727C148.288 21.3415 148.356 21.3232 148.427 21.3186C148.497 21.3141 148.568 21.3234 148.635 21.3462C148.701 21.3689 148.763 21.4046 148.816 21.4511C149.224 21.8111 149.626 22.1931 150.013 22.5861C150.113 22.6871 150.169 22.8235 150.169 22.9656C150.169 23.1078 150.113 23.2442 150.013 23.3451C149.96 23.3965 149.897 23.4364 149.827 23.4622C149.758 23.488 149.684 23.4992 149.61 23.4951H149.632ZM109.353 21.2151C109.235 21.2159 109.119 21.1776 109.025 21.1062C108.931 21.0347 108.863 20.9341 108.831 20.8199C108.8 20.7057 108.807 20.5845 108.852 20.4749C108.897 20.3654 108.977 20.2737 109.079 20.2141C109.552 19.9391 110.025 19.6761 110.497 19.4171C110.58 19.3694 110.673 19.3445 110.769 19.3447C110.864 19.345 110.958 19.3705 111.04 19.4187C111.122 19.4668 111.19 19.5359 111.237 19.6189C111.284 19.7019 111.308 19.7958 111.307 19.8911C111.307 19.9862 111.281 20.0795 111.233 20.1617C111.185 20.2438 111.117 20.3119 111.034 20.3591C110.567 20.6121 110.105 20.8971 109.644 21.1441C109.54 21.2054 109.419 21.2301 109.3 21.2141H109.353V21.2151ZM144.09 19.3211C143.999 19.3214 143.91 19.2972 143.832 19.2511C143.381 19.0031 142.908 18.7611 142.425 18.5351C142.296 18.4738 142.196 18.3638 142.148 18.2291C142.1 18.0945 142.108 17.9463 142.169 17.8171C142.23 17.688 142.34 17.5884 142.475 17.5404C142.61 17.4924 142.758 17.4998 142.887 17.5611C143.386 17.7981 143.875 18.0511 144.347 18.3091C144.453 18.3659 144.537 18.4565 144.585 18.5664C144.633 18.6762 144.644 18.7992 144.614 18.9155C144.584 19.0319 144.517 19.1351 144.422 19.2086C144.327 19.2821 144.21 19.3217 144.09 19.3211ZM115.6 18.1261C115.474 18.1277 115.352 18.085 115.254 18.0054C115.156 17.9258 115.09 17.8144 115.066 17.6908C115.042 17.5671 115.062 17.4389 115.124 17.3288C115.185 17.2186 115.283 17.1334 115.4 17.0881C115.905 16.8841 116.41 16.6901 116.92 16.5071C117.054 16.4586 117.202 16.4653 117.331 16.5258C117.46 16.5862 117.56 16.6955 117.609 16.8296C117.657 16.9637 117.65 17.1115 117.59 17.2407C117.529 17.3698 117.42 17.4696 117.286 17.5181C116.791 17.6961 116.297 17.8841 115.803 18.0881C115.725 18.1201 115.64 18.1331 115.556 18.1261H115.599H115.6ZM137.645 16.6741C137.593 16.6793 137.541 16.6793 137.489 16.6741C136.984 16.5241 136.469 16.3841 135.959 16.2641C135.824 16.224 135.709 16.1337 135.638 16.0116C135.567 15.8896 135.546 15.7451 135.578 15.6077C135.61 15.4703 135.694 15.3504 135.811 15.2726C135.929 15.1948 136.072 15.1649 136.211 15.1891C136.748 15.3181 137.285 15.4581 137.822 15.6141C137.965 15.634 138.094 15.7098 138.18 15.8247C138.267 15.9397 138.305 16.0844 138.285 16.2271C138.265 16.3698 138.189 16.4987 138.074 16.5856C137.959 16.6724 137.815 16.71 137.672 16.6901L137.645 16.6741ZM122.189 16.0771C122.052 16.085 121.917 16.04 121.812 15.9512C121.707 15.8625 121.64 15.7368 121.624 15.6001C121.609 15.4634 121.647 15.3261 121.73 15.2165C121.813 15.1069 121.935 15.0334 122.071 15.0111C122.608 14.9041 123.145 14.8011 123.681 14.7211C123.776 14.7062 123.872 14.7165 123.961 14.751C124.051 14.7855 124.129 14.843 124.189 14.9176C124.249 14.9922 124.288 15.0813 124.302 15.1758C124.317 15.2704 124.306 15.3671 124.271 15.4561C124.236 15.5449 124.179 15.623 124.105 15.6826C124.031 15.7423 123.942 15.7814 123.848 15.7961C123.311 15.8781 122.812 15.9741 122.291 16.0821C122.257 16.0852 122.223 16.0835 122.189 16.0771ZM130.744 15.4741H130.706C130.18 15.4413 129.654 15.4213 129.127 15.4141C128.988 15.4081 128.858 15.3489 128.762 15.2487C128.666 15.1486 128.612 15.0153 128.612 14.8766C128.612 14.7379 128.666 14.6046 128.762 14.5045C128.858 14.4043 128.988 14.3451 129.127 14.3391C129.664 14.3391 130.201 14.3661 130.765 14.3991C130.905 14.4076 131.035 14.4701 131.13 14.5733C131.224 14.6766 131.274 14.8124 131.27 14.9521C131.266 15.0918 131.207 15.2245 131.107 15.3219C131.007 15.4193 130.873 15.4739 130.733 15.4741H130.743H130.744Z" fill="#E6E6E6"/>
<path d="M119.847 100.221H58.1465L70.3325 0.792969H125.357L131.104 8.39397L119.847 100.221Z" fill="#39475F"/>
<path d="M113.172 100.221H51.4648L63.6508 0.792969H125.357L113.172 100.221Z" fill="#61728D"/>
<path d="M110.132 81.3539H58.5762L67.3672 9.65894H118.924L110.132 81.3539Z" fill="#181F27"/>
<path d="M92.7432 50.0549L107.64 50.2319L107.35 52.5399L92.7432 52.2879V50.0549Z" fill="#1E252E"/>
<path d="M51.4648 100.221L58.8868 107.085L118.924 108L119.847 100.221H51.4648Z" fill="#39475F"/>
<path d="M99.0956 29.0581C99.0956 29.0581 101.668 29.2411 102.984 34.0881C104.3 38.9351 103.849 52.4651 103.849 52.4651L92.7526 52.2881C92.7526 52.2881 87.2156 32.1511 99.0956 29.0581Z" fill="#2D394B"/>
<path d="M5.41992 32.843L45.7779 0L66.9579 26.119L26.6029 58.96L5.41992 32.843Z" fill="#2F55D8"/>
<path d="M27.4902 21.9311L45.5602 7.22607L49.0572 11.5391L30.9872 26.2451L27.4902 21.9311Z" fill="white"/>
<path opacity="0.46" d="M25.2716 45.1749L30.6096 40.8299C30.8923 40.6 31.2174 40.428 31.5666 40.3239C31.9157 40.2197 32.282 40.1855 32.6444 40.223C33.0068 40.2605 33.3582 40.3691 33.6786 40.5426C33.999 40.716 34.2821 40.9509 34.5116 41.2339C34.9762 41.8061 35.1946 42.5393 35.1188 43.2725C35.043 44.0056 34.6794 44.6787 34.1076 45.1439L28.7696 49.4879C28.487 49.718 28.1617 49.89 27.8125 49.9943C27.4632 50.0985 27.0969 50.1328 26.7343 50.0953C26.3718 50.0578 26.0203 49.9491 25.6998 49.7756C25.3793 49.602 25.0962 49.367 24.8666 49.0839C24.4022 48.5115 24.184 47.7782 24.2599 47.0451C24.3359 46.3119 24.6997 45.6389 25.2716 45.1739V45.1749ZM37.3296 35.3649L54.2196 21.6219C54.5023 21.392 54.8274 21.22 55.1766 21.1159C55.5257 21.0117 55.892 20.9775 56.2544 21.015C56.6168 21.0525 56.9682 21.1611 57.2886 21.3346C57.609 21.508 57.8921 21.7429 58.1216 22.0259C58.5857 22.5982 58.8038 23.3313 58.7278 24.0642C58.6519 24.7971 58.2882 25.4699 57.7166 25.9349L40.8296 39.6789C40.547 39.909 40.2217 40.081 39.8725 40.1853C39.5232 40.2895 39.1569 40.3238 38.7943 40.2863C38.4318 40.2488 38.0803 40.1401 37.7598 39.9666C37.4393 39.793 37.1562 39.558 36.9266 39.2749C36.4622 38.7025 36.244 37.9692 36.3199 37.2361C36.3959 36.5029 36.7598 35.8299 37.3316 35.3649H37.3296Z" fill="white"/>
<path opacity="0.3" d="M17.9367 37.3161C19.9652 37.3161 21.6097 35.6685 21.6097 33.6361C21.6097 31.6036 19.9652 29.9561 17.9367 29.9561C15.9081 29.9561 14.2637 31.6036 14.2637 33.6361C14.2637 35.6685 15.9081 37.3161 17.9367 37.3161Z" fill="white"/>
<path opacity="0.3" d="M21.6642 33.964C23.6928 33.964 25.3372 32.3164 25.3372 30.284C25.3372 28.2516 23.6928 26.604 21.6642 26.604C19.6357 26.604 17.9912 28.2516 17.9912 30.284C17.9912 32.3164 19.6357 33.964 21.6642 33.964Z" fill="white"/>
<path d="M99.0959 29.058C99.0959 29.058 93.2579 31.161 95.2929 47.639C96.7859 59.712 91.7429 75.695 84.2889 75.889C76.8349 76.082 63.0869 75.426 63.0869 75.426C63.0869 75.426 70.2459 56.866 68.7629 41.281C68.5352 39.0991 68.7958 36.8938 69.5259 34.825C70.3959 32.452 72.0129 29.983 75.0199 29.58C81.0239 28.762 99.0959 29.058 99.0959 29.058Z" fill="#BAD6FA"/>
<path d="M58.9569 76.63L85.2989 76.093C85.2989 76.093 81.2819 72.101 81.0289 61.939L44.7949 62.477C45.4159 65.0985 46.3707 67.6295 47.6359 70.008C48.7283 72.0486 50.3638 73.7474 52.3617 74.9163C54.3595 76.0851 56.6418 76.6786 58.9559 76.631L58.9569 76.63Z" fill="#546F8D"/>
<path d="M78.21 14.834L77.292 20.875H103.913L104.719 14.834H78.21Z" fill="#2D394B"/>
<path opacity="0.48" d="M85.5399 86.19C82.6679 83.673 78.1239 84.168 76.0939 87.412C75.5815 88.2006 75.304 89.1186 75.2939 90.059C75.2939 94.039 78.038 96.649 83.521 95.551C87.705 94.712 89.2999 89.478 85.5409 86.191L85.5399 86.19Z" fill="white"/>
<path d="M147.188 96.379C155.368 96.379 162 89.7362 162 81.542C162 73.3477 155.368 66.705 147.188 66.705C139.008 66.705 132.376 73.3477 132.376 81.542C132.376 89.7362 139.008 96.379 147.188 96.379Z" fill="#2F55D8"/>
<path d="M73.7306 35.7501C73.66 35.7526 73.5895 35.7412 73.5233 35.7164C73.4571 35.6917 73.3964 35.6542 73.3446 35.606C73.2402 35.5086 73.1787 35.3738 73.1736 35.2311C73.1686 35.0884 73.2204 34.9496 73.3178 34.8451C73.4151 34.7407 73.55 34.6791 73.6926 34.6741C73.8056 34.6741 85.0356 33.8461 91.0556 34.3841C91.1983 34.3968 91.3301 34.4657 91.422 34.5756C91.5139 34.6855 91.5584 34.8274 91.5456 34.9701C91.5329 35.1128 91.464 35.2446 91.3541 35.3365C91.2442 35.4284 91.1023 35.4728 90.9596 35.4601C85.0516 34.9221 73.8806 35.7341 73.7736 35.7451L73.7306 35.7501ZM72.8396 43.0291C72.769 43.0316 72.6985 43.0202 72.6323 42.9954C72.5661 42.9707 72.5054 42.9332 72.4536 42.885C72.3492 42.7876 72.2877 42.6528 72.2826 42.5101C72.2776 42.3674 72.3294 42.2286 72.4268 42.1241C72.5241 42.0197 72.659 41.9581 72.8016 41.9531C72.9146 41.9531 84.1436 41.1251 90.1646 41.6631C90.2353 41.6695 90.304 41.6897 90.3668 41.7226C90.4297 41.7555 90.4854 41.8005 90.5309 41.855C90.5763 41.9094 90.6106 41.9723 90.6318 42.04C90.6529 42.1077 90.6605 42.179 90.6541 42.2496C90.6478 42.3203 90.6275 42.389 90.5946 42.4518C90.5617 42.5146 90.5167 42.5704 90.4623 42.6158C90.4078 42.6613 90.3449 42.6956 90.2772 42.7167C90.2095 42.7379 90.1383 42.7455 90.0676 42.7391C84.1606 42.2011 72.9946 43.0191 72.8826 43.0241L72.8396 43.0291ZM72.7376 50.5931C72.595 50.5988 72.4558 50.5476 72.3509 50.4507C72.246 50.3539 72.1838 50.2193 72.1781 50.0766C72.1724 49.9339 72.2237 49.7948 72.3205 49.6899C72.4174 49.585 72.552 49.5228 72.6946 49.5171C72.8066 49.5171 84.0416 48.6881 90.0566 49.2271C90.1953 49.2446 90.3218 49.3152 90.4095 49.4241C90.4972 49.533 90.5393 49.6716 90.5268 49.8109C90.5144 49.9501 90.4485 50.0791 90.3429 50.1707C90.2373 50.2624 90.1002 50.3094 89.9606 50.3021C84.0526 49.7641 72.8876 50.5821 72.7746 50.5881L72.7376 50.5931ZM72.0226 58.1571C71.88 58.162 71.7412 58.11 71.6368 58.0126C71.5324 57.9152 71.471 57.7803 71.4661 57.6376C71.4612 57.4949 71.5132 57.3561 71.6106 57.2518C71.7081 57.1474 71.843 57.086 71.9856 57.0811C72.0976 57.0811 83.3276 56.2521 89.3476 56.7961C89.4183 56.8024 89.487 56.8226 89.5499 56.8554C89.6127 56.8883 89.6685 56.9332 89.714 56.9876C89.7595 57.042 89.7938 57.1049 89.8151 57.1726C89.8363 57.2403 89.8439 57.3115 89.8376 57.3821C89.8313 57.4528 89.8112 57.5215 89.7783 57.5843C89.7455 57.6472 89.7005 57.703 89.6461 57.7485C89.5917 57.794 89.5289 57.8283 89.4612 57.8495C89.3935 57.8707 89.3223 57.8784 89.2516 57.8721C83.3436 57.3341 72.1786 58.1521 72.0656 58.1571H72.0226Z" fill="white"/>
</g>
<defs>
<clipPath id="clip0_2460_26">
<rect width="162" height="108" fill="white"/>
</clipPath>
</defs>
</svg>
